<svg xmlns="http://www.w3.org/2000/svg" width="24" height="24" fill="none" stroke="#8A8A89" stroke-width="2" stroke-linecap="round" stroke-linejoin="round" viewBox="0 0 24 24"><path d="M4.5 17.5A4.5 4.5 0 0 1 5 8.52 6 6 0 0 1 16.74 7h.76a4.5 4.5 0 0 1 2.53 8.22"/><path d="M16.83 14.17a2.5 2.5 0 1 0 2.34 4.41 2.5 2.5 0 0 0-2.34-4.41Z"/><path d="M18 12.5V14"/><path d="M18 21v1.5"/><path d="m21.03 14.25-1.3.75"/><path d="m16.27 20-1.3.75"/><path d="m14.97 14.25 1.3.75"/><path d="m19.73 20 1.3.75"/></svg>
