<svg xmlns="http://www.w3.org/2000/svg" width="96" height="96" viewBox="0 0 96 96">
  <rect width="96" height="96" rx="24" fill="#111"/>
  <path d="M54 24v30.5c0 10.2-8.2 18.5-18.5 18.5S17 64.7 17 54.5 25.3 36 35.5 36c2.2 0 4.3.4 6.2 1.1v12.7a8 8 0 1 0 5.3 7.5V24z" fill="#22F2D3"/>
  <path d="M61 24c1.7 10 7.3 15.8 17 17.7v12.1c-6.8-.4-12.5-2.6-17-6.3V54c0 10.2-8.2 18.5-18.5 18.5-4.3 0-8.3-1.5-11.4-4 11.5.9 22-7 22-19V24z" fill="#FF2B67" opacity=".9"/>
  <path d="M54 24v30.5A18.5 18.5 0 1 1 41.7 37v12.8a8 8 0 1 0 5.3 7.5V24z" fill="#fff"/>
</svg>
