<svg xmlns="http://www.w3.org/2000/svg" width="96" height="96" viewBox="0 0 96 96">
  <rect x="4" y="4" width="88" height="88" rx="24" fill="#fff"/>
  <path d="M23 34c15 18 29 27 49 30 1 0 2 1 1 3l-8 12c-1 2-3 2-5 1-22-8-35-21-44-39-1-2-1-3 1-4z" fill="#426BFF"/>
  <path d="M32 22c13 7 24 17 33 31 1 2 1 3-1 4l-12 7c-2 1-3 1-4-1-7-13-16-22-27-28-2-1-2-3 0-4l8-8c1-1 2-2 3-1z" fill="#56D6C2"/>
  <path d="M25 59c12 7 25 10 40 9l-4 11c-1 2-3 3-5 2-13-4-24-10-33-19-1-1 0-4 2-3z" fill="#284DB8" opacity=".92"/>
</svg>
